<?xml version="1.0" encoding="UTF-8"?>
<svg id="Layer_1" data-name="Layer 1" xmlns="http://www.w3.org/2000/svg" viewBox="0 0 284.57 373.29">
  <defs>
    <style>
      .cls-1 {
        fill: #2f372e;
      }

      .cls-1, .cls-2, .cls-3, .cls-4 {
        stroke-width: 0px;
      }

      .cls-2 {
        fill: #b7a894;
      }

      .cls-3 {
        fill: #fff;
      }

      .cls-4 {
        fill: #ffe528;
      }
    </style>
  </defs>
  <g>
    <circle class="cls-3" cx="142.28" cy="142.28" r="142.28"/>
    <path class="cls-2" d="m142.28,15.79c69.75,0,126.49,56.74,126.49,126.49s-56.74,126.49-126.49,126.49S15.79,212.03,15.79,142.28,72.54,15.79,142.28,15.79M142.28,0C63.7,0,0,63.7,0,142.28s63.7,142.28,142.28,142.28,142.28-63.7,142.28-142.28S220.86,0,142.28,0h0Z"/>
    <g>
      <path class="cls-4" d="m254.42,129.93c-2.27-20.69-10.25-40.88-23.94-58-4.22-5.28-12.07-5.77-16.85-.99l-52.08,52.08c-7.11,7.11-2.07,19.26,7.98,19.26h73.65c6.66,0,11.97-5.74,11.24-12.36Z"/>
      <path class="cls-3" d="m243.18,146.8h-73.65c-6.51,0-12.1-3.74-14.59-9.75-2.49-6.01-1.18-12.61,3.43-17.21l52.08-52.08c3.17-3.17,7.55-4.84,12.03-4.6,4.51.25,8.71,2.42,11.54,5.96,13.87,17.34,22.48,38.2,24.9,60.32h0c.48,4.38-.94,8.78-3.9,12.08-3.01,3.36-7.32,5.28-11.82,5.28Zm-21.6-74.64c-1.8,0-3.47.69-4.76,1.98l-52.08,52.08c-2,2-2.55,4.76-1.47,7.38,1.08,2.62,3.42,4.18,6.26,4.18h73.65c1.94,0,3.81-.83,5.1-2.28,1.27-1.41,1.86-3.22,1.65-5.07h0c-2.24-20.42-10.18-39.67-22.98-55.67-1.24-1.55-3.02-2.47-4.99-2.58-.13,0-.26-.01-.39-.01Z"/>
    </g>
    <g>
      <path class="cls-1" d="m230.31,212.84c13.03-16.23,21.66-36.15,24.08-57.94.75-6.72-4.46-12.61-11.22-12.61h-73.66c-10.05,0-15.09,12.15-7.98,19.26l52.08,52.08c4.71,4.71,12.52,4.4,16.69-.79Z"/>
      <path class="cls-3" d="m221.67,221.47c-4.2,0-8.25-1.67-11.23-4.65l-52.08-52.08c-4.6-4.6-5.92-11.19-3.43-17.21s8.08-9.75,14.59-9.75h73.66c4.48,0,8.76,1.91,11.75,5.25,3.01,3.36,4.45,7.87,3.95,12.37-2.45,22.06-11.12,42.9-25.05,60.26h0c-2.76,3.43-6.88,5.54-11.3,5.78-.29.02-.58.02-.86.02Zm-52.14-74.67c-2.83,0-5.17,1.56-6.26,4.18-1.08,2.62-.54,5.37,1.47,7.38l52.08,52.08c1.37,1.37,3.26,2.11,5.22,2,1.9-.1,3.59-.97,4.76-2.42,12.86-16.02,20.85-35.25,23.11-55.61.22-1.98-.38-3.88-1.7-5.35-1.3-1.45-3.08-2.25-5.03-2.25h-73.66Z"/>
    </g>
    <g>
      <path class="cls-1" d="m154.64,254.42c20.69-2.27,40.88-10.25,58-23.94,5.28-4.22,5.77-12.07.99-16.85l-52.08-52.08c-7.11-7.11-19.26-2.07-19.26,7.98v73.65c0,6.66,5.74,11.97,12.36,11.24Z"/>
      <path class="cls-3" d="m153.46,258.99c-3.81,0-7.53-1.41-10.41-3.99-3.36-3.01-5.28-7.32-5.28-11.82v-73.66c0-6.51,3.74-12.1,9.75-14.59,6.02-2.49,12.61-1.18,17.21,3.42l52.08,52.08c3.17,3.17,4.84,7.55,4.59,12.03-.25,4.51-2.42,8.71-5.96,11.54-17.34,13.87-38.2,22.48-60.32,24.9h0c-.56.06-1.12.09-1.67.09Zm.19-96.27c-.88,0-1.78.18-2.67.55-2.62,1.08-4.18,3.42-4.18,6.25v73.66c0,1.94.83,3.81,2.28,5.11,1.41,1.27,3.22,1.85,5.07,1.65h0c20.42-2.24,39.67-10.18,55.67-22.98,1.55-1.24,2.47-3.02,2.58-4.99.11-1.94-.59-3.77-1.96-5.14l-52.08-52.08c-1.33-1.32-2.98-2.01-4.71-2.01Z"/>
    </g>
    <g>
      <path class="cls-1" d="m71.73,230.31c16.23,13.03,36.15,21.66,57.94,24.08,6.72.75,12.61-4.46,12.61-11.22v-73.66c0-10.05-12.15-15.09-19.26-7.98l-52.08,52.08c-4.71,4.71-4.4,12.52.79,16.69Z"/>
      <path class="cls-3" d="m130.93,258.98c-.58,0-1.17-.03-1.76-.1-22.06-2.45-42.9-11.11-60.26-25.05-3.43-2.75-5.54-6.87-5.78-11.3-.25-4.5,1.44-8.91,4.63-12.1l52.08-52.08c4.6-4.6,11.2-5.92,17.22-3.42,6.01,2.49,9.75,8.08,9.75,14.59v73.66c0,4.48-1.91,8.76-5.25,11.75-2.92,2.62-6.72,4.05-10.61,4.05Zm0-96.26c-1.73,0-3.38.69-4.71,2.01l-52.08,52.08c-1.37,1.37-2.1,3.28-2,5.22.1,1.9.96,3.58,2.42,4.75h0c16.02,12.86,35.25,20.85,55.61,23.12,1.98.21,3.88-.39,5.36-1.71,1.45-1.3,2.25-3.08,2.25-5.03v-73.66c0-2.83-1.56-5.17-4.18-6.25-.89-.37-1.79-.55-2.67-.55Z"/>
    </g>
    <g>
      <path class="cls-1" d="m30.15,154.64c2.27,20.69,10.25,40.88,23.94,58,4.22,5.28,12.07,5.77,16.85.99l52.08-52.08c7.11-7.11,2.07-19.26-7.98-19.26H41.39c-6.66,0-11.97,5.74-11.24,12.36Z"/>
      <path class="cls-3" d="m62.98,221.43c-.29,0-.58,0-.87-.02-4.51-.25-8.71-2.42-11.54-5.96-13.87-17.34-22.48-38.2-24.9-60.32h0c-.48-4.38.94-8.78,3.9-12.08,3.01-3.36,7.32-5.28,11.82-5.28h73.65c6.51,0,12.1,3.74,14.59,9.75,2.49,6.01,1.18,12.61-3.43,17.21l-52.08,52.08c-2.96,2.96-6.99,4.62-11.15,4.62Zm-28.34-67.28c2.24,20.42,10.18,39.67,22.98,55.67,1.24,1.56,3.02,2.47,4.99,2.58,1.93.1,3.77-.59,5.15-1.97l52.08-52.08c2-2,2.55-4.76,1.47-7.38-1.08-2.62-3.42-4.18-6.25-4.18H41.39c-1.94,0-3.81.83-5.1,2.28-1.27,1.41-1.86,3.22-1.65,5.07h0Z"/>
    </g>
    <g>
      <path class="cls-1" d="m54.25,71.73c-13.03,16.23-21.66,36.15-24.08,57.94-.75,6.72,4.46,12.61,11.22,12.61h73.66c10.05,0,15.09-12.15,7.98-19.26l-52.08-52.08c-4.71-4.71-12.52-4.4-16.69.79Z"/>
      <path class="cls-3" d="m115.05,146.8H41.39c-4.48,0-8.76-1.91-11.75-5.25-3.01-3.36-4.45-7.87-3.95-12.37,2.45-22.06,11.12-42.9,25.05-60.26h0c2.76-3.43,6.88-5.54,11.3-5.78,4.51-.27,8.91,1.44,12.09,4.62l52.08,52.08c4.6,4.6,5.92,11.2,3.43,17.21-2.49,6.01-8.08,9.75-14.59,9.75Zm-57.27-72.24c-12.86,16.02-20.85,35.25-23.12,55.61-.22,1.98.38,3.88,1.7,5.36,1.3,1.45,3.08,2.25,5.03,2.25h73.66c2.83,0,5.17-1.56,6.25-4.18,1.08-2.62.54-5.38-1.47-7.38l-52.08-52.08c-1.37-1.37-3.26-2.09-5.22-2-1.9.1-3.59.97-4.76,2.42h0Z"/>
    </g>
    <g>
      <path class="cls-1" d="m129.91,30.15c-20.69,2.27-40.88,10.25-58,23.94-5.28,4.22-5.77,12.07-.99,16.85l52.08,52.08c7.11,7.11,19.26,2.07,19.26-7.98V41.39c0-6.66-5.74-11.97-12.36-11.24Z"/>
      <path class="cls-3" d="m130.88,130.88c-4.07,0-8.01-1.61-11.07-4.67l-52.08-52.08c-3.17-3.17-4.84-7.55-4.59-12.03.25-4.51,2.42-8.71,5.95-11.54,17.34-13.87,38.2-22.48,60.32-24.9h0c4.38-.48,8.78.95,12.08,3.9,3.36,3.01,5.28,7.32,5.28,11.82v73.65c0,6.51-3.74,12.1-9.75,14.59-2.01.84-4.1,1.24-6.14,1.24Zm-.48-96.24h0c-20.42,2.24-39.67,10.18-55.67,22.98-1.55,1.24-2.47,3.02-2.58,4.99-.11,1.94.59,3.77,1.97,5.15l52.08,52.08c2,2,4.76,2.55,7.38,1.47,2.62-1.08,4.18-3.42,4.18-6.26V41.39c0-1.94-.83-3.81-2.28-5.1-1.42-1.27-3.22-1.86-5.07-1.65Z"/>
    </g>
    <g>
      <path class="cls-4" d="m221.09,34.71c-16.23-13.03-36.15-21.66-57.94-24.08-6.72-.75-12.61,4.46-12.61,11.22v73.66c0,10.05,12.15,15.09,19.26,7.98l52.08-52.08c4.71-4.71,4.4-12.52-.79-16.69Z"/>
      <path class="cls-3" d="m161.92,111.34c-2.05,0-4.13-.41-6.14-1.24-6.01-2.49-9.75-8.08-9.75-14.59V21.85c0-4.48,1.92-8.76,5.26-11.75,3.36-3.01,7.87-4.45,12.37-3.95,22.06,2.45,42.9,11.12,60.26,25.05h0c3.43,2.75,5.54,6.87,5.78,11.3.25,4.5-1.44,8.91-4.63,12.09l-52.08,52.08c-3.06,3.06-7,4.67-11.07,4.67Zm-.06-96.27c-1.69,0-3.28.61-4.56,1.75-1.45,1.3-2.25,3.08-2.25,5.03v73.66c0,2.83,1.56,5.17,4.18,6.25,2.62,1.09,5.37.54,7.38-1.47l52.08-52.08c1.37-1.37,2.1-3.28,2-5.22-.1-1.9-.96-3.58-2.42-4.75h0c-16.02-12.86-35.25-20.85-55.61-23.12-.27-.03-.53-.04-.8-.04Z"/>
    </g>
  </g>
  <g>
    <path class="cls-1" d="m8.48,339.72l8.13,17.64,8.1-17.64h8.16l-16.32,33.57L.35,339.72h8.13Z"/>
    <path class="cls-1" d="m36.67,326.65c0-1.27.46-2.36,1.39-3.29.92-.92,2.03-1.39,3.32-1.39s2.43.46,3.35,1.39c.92.9,1.39,2.01,1.39,3.32s-.46,2.43-1.39,3.35c-.9.92-2.01,1.39-3.32,1.39s-2.43-.46-3.35-1.39-1.39-2.05-1.39-3.39Zm8.35,13.06v31.41h-7.26v-31.41h7.26Z"/>
    <path class="cls-1" d="m72.47,345.07l-6,3.19c-.95-1.93-2.12-2.9-3.52-2.9-.67,0-1.24.22-1.71.66-.47.44-.71,1.01-.71,1.69,0,1.2,1.4,2.4,4.19,3.58,3.85,1.66,6.44,3.18,7.77,4.58,1.33,1.4,2,3.28,2,5.64,0,3.03-1.12,5.57-3.35,7.61-2.17,1.93-4.8,2.9-7.87,2.9-5.27,0-9-2.57-11.19-7.71l6.19-2.87c.86,1.51,1.52,2.46,1.97,2.87.88.82,1.94,1.23,3.16,1.23,2.45,0,3.68-1.12,3.68-3.35,0-1.29-.95-2.49-2.84-3.61-.73-.37-1.46-.72-2.19-1.06-.73-.34-1.47-.7-2.23-1.06-2.11-1.03-3.59-2.06-4.45-3.1-1.1-1.31-1.65-3-1.65-5.06,0-2.73.94-4.99,2.81-6.77,1.91-1.78,4.24-2.68,6.97-2.68,4.02,0,7.01,2.08,8.97,6.23Z"/>
    <path class="cls-1" d="m79.92,326.65c0-1.27.46-2.36,1.39-3.29.92-.92,2.03-1.39,3.32-1.39s2.43.46,3.35,1.39c.92.9,1.39,2.01,1.39,3.32s-.46,2.43-1.39,3.35c-.9.92-2.01,1.39-3.32,1.39s-2.43-.46-3.35-1.39c-.92-.92-1.39-2.05-1.39-3.39Zm8.35,13.06v31.41h-7.26v-31.41h7.26Z"/>
    <path class="cls-1" d="m95.98,355.2c0-4.54,1.62-8.4,4.87-11.58,3.25-3.18,7.2-4.77,11.87-4.77s8.67,1.6,11.93,4.81c3.23,3.2,4.84,7.14,4.84,11.8s-1.62,8.65-4.87,11.84c-3.27,3.16-7.28,4.74-12.03,4.74s-8.65-1.61-11.84-4.84c-3.18-3.18-4.77-7.18-4.77-12Zm7.42.13c0,3.14.84,5.62,2.52,7.45,1.72,1.85,3.99,2.77,6.81,2.77s5.11-.91,6.81-2.74c1.7-1.83,2.55-4.27,2.55-7.32s-.85-5.49-2.55-7.32c-1.72-1.85-3.99-2.77-6.81-2.77s-5.02.92-6.74,2.77c-1.72,1.85-2.58,4.24-2.58,7.16Z"/>
    <path class="cls-1" d="m137.17,339.72h7.29v2.9c2.54-2.52,5.4-3.77,8.58-3.77,3.66,0,6.5,1.15,8.55,3.45,1.76,1.96,2.64,5.15,2.64,9.58v19.26h-7.29v-17.55c0-3.1-.43-5.24-1.29-6.42-.84-1.2-2.37-1.81-4.58-1.81-2.41,0-4.12.8-5.13,2.39-.99,1.57-1.48,4.31-1.48,8.22v15.16h-7.29v-31.41Z"/>
    <path class="cls-1" d="m196.55,339.72h7.29v31.41h-7.29v-3.29c-2.99,2.8-6.2,4.19-9.64,4.19-4.34,0-7.93-1.57-10.77-4.71-2.82-3.2-4.23-7.2-4.23-12s1.41-8.63,4.23-11.77c2.82-3.14,6.34-4.71,10.58-4.71,3.65,0,6.93,1.51,9.84,4.52v-3.64Zm-17.22,15.61c0,3.01.81,5.46,2.42,7.35,1.66,1.91,3.74,2.87,6.26,2.87,2.69,0,4.86-.92,6.52-2.77,1.66-1.91,2.48-4.34,2.48-7.29s-.83-5.38-2.48-7.29c-1.66-1.87-3.81-2.81-6.45-2.81-2.49,0-4.58.95-6.26,2.84-1.66,1.91-2.48,4.28-2.48,7.1Z"/>
    <path class="cls-1" d="m236.15,316.66h7.29v54.48h-7.29v-3.29c-2.86,2.8-6.1,4.19-9.71,4.19-4.3,0-7.87-1.57-10.71-4.71-2.82-3.2-4.23-7.2-4.23-12s1.41-8.6,4.23-11.74c2.79-3.16,6.31-4.74,10.55-4.74,3.68,0,6.97,1.51,9.87,4.52v-26.71Zm-17.22,38.67c0,3.01.81,5.46,2.42,7.35,1.66,1.91,3.74,2.87,6.26,2.87,2.69,0,4.86-.92,6.52-2.77,1.66-1.91,2.48-4.34,2.48-7.29s-.83-5.38-2.48-7.29c-1.66-1.87-3.81-2.81-6.45-2.81-2.49,0-4.58.95-6.26,2.84-1.66,1.91-2.48,4.28-2.48,7.1Z"/>
    <path class="cls-1" d="m281.21,357.13h-22.51c.19,2.58,1.03,4.63,2.52,6.16,1.48,1.51,3.39,2.26,5.71,2.26,1.81,0,3.3-.43,4.48-1.29,1.16-.86,2.48-2.45,3.97-4.77l6.13,3.42c-.95,1.61-1.95,2.99-3,4.14-1.05,1.15-2.18,2.1-3.39,2.84-1.2.74-2.51,1.28-3.9,1.63-1.4.34-2.91.52-4.55.52-4.69,0-8.45-1.5-11.29-4.52-2.84-3.03-4.26-7.05-4.26-12.06s1.38-8.99,4.13-12.06c2.77-3.03,6.45-4.55,11.03-4.55s8.28,1.47,10.97,4.42c2.67,2.92,4,6.98,4,12.16l-.03,1.71Zm-7.45-5.93c-1.01-3.87-3.45-5.81-7.32-5.81-.88,0-1.71.13-2.48.4-.77.27-1.48.66-2.11,1.16-.63.51-1.18,1.11-1.63,1.82-.45.71-.8,1.52-1.03,2.42h14.58Z"/>
  </g>
</svg>