<?xml version="1.0" encoding="UTF-8"?>
<svg id="Layer_1" data-name="Layer 1" xmlns="http://www.w3.org/2000/svg" viewBox="0 0 825.75 229.77">
  <defs>
    <style>
      .cls-1 {
        fill: #2f372e;
      }

      .cls-1, .cls-2, .cls-3, .cls-4 {
        stroke-width: 0px;
      }

      .cls-2 {
        fill: #b7a894;
      }

      .cls-3 {
        fill: #fff;
      }

      .cls-4 {
        fill: #ffe528;
      }
    </style>
  </defs>
  <g>
    <circle class="cls-3" cx="114.89" cy="114.89" r="114.89"/>
    <path class="cls-2" d="m114.89,12.75c56.32,0,102.13,45.82,102.13,102.13s-45.82,102.13-102.13,102.13S12.75,171.2,12.75,114.89,58.57,12.75,114.89,12.75M114.89,0C51.44,0,0,51.44,0,114.89s51.44,114.89,114.89,114.89,114.89-51.44,114.89-114.89S178.33,0,114.89,0h0Z"/>
    <g>
      <path class="cls-4" d="m205.43,104.91c-1.83-16.71-8.27-33-19.33-46.83-3.41-4.26-9.75-4.66-13.61-.8l-42.05,42.05c-5.74,5.74-1.67,15.55,6.44,15.55h59.47c5.37,0,9.66-4.64,9.08-9.98Z"/>
      <path class="cls-3" d="m196.35,118.53h-59.47c-5.26,0-9.77-3.02-11.78-7.87-2.01-4.86-.95-10.18,2.77-13.9l42.05-42.05c2.56-2.56,6.1-3.91,9.71-3.71,3.64.2,7.04,1.96,9.32,4.81,11.2,14,18.15,30.84,20.11,48.71h0c.39,3.53-.76,7.09-3.15,9.75-2.43,2.71-5.91,4.26-9.55,4.26Zm-17.44-60.27c-1.45,0-2.8.56-3.84,1.6l-42.05,42.05c-1.62,1.62-2.06,3.84-1.18,5.96.88,2.11,2.76,3.37,5.05,3.37h59.47c1.57,0,3.07-.67,4.12-1.84,1.02-1.14,1.5-2.6,1.33-4.1h0c-1.81-16.49-8.22-32.03-18.55-44.95-1-1.25-2.44-1.99-4.03-2.08-.11,0-.21,0-.31,0Z"/>
    </g>
    <g>
      <path class="cls-1" d="m185.96,171.85c10.52-13.11,17.49-29.19,19.44-46.78.6-5.42-3.6-10.19-9.06-10.19h-59.47c-8.12,0-12.18,9.81-6.44,15.55l42.05,42.05c3.8,3.8,10.11,3.55,13.47-.64Z"/>
      <path class="cls-3" d="m178.98,178.82c-3.39,0-6.66-1.35-9.07-3.75l-42.05-42.05c-3.72-3.71-4.78-9.04-2.77-13.9,2.01-4.86,6.53-7.87,11.78-7.87h59.47c3.62,0,7.08,1.55,9.49,4.24,2.43,2.72,3.59,6.36,3.19,9.99-1.98,17.81-8.98,34.64-20.22,48.66h0c-2.22,2.77-5.55,4.47-9.13,4.67-.23.01-.47.02-.7.02Zm-42.1-60.29c-2.29,0-4.18,1.26-5.05,3.37-.88,2.11-.43,4.34,1.18,5.96l42.05,42.05c1.11,1.11,2.64,1.7,4.22,1.61,1.53-.08,2.9-.78,3.84-1.96,10.38-12.94,16.83-28.46,18.66-44.9.18-1.6-.31-3.13-1.38-4.32-1.05-1.17-2.49-1.82-4.06-1.82h-59.47Z"/>
    </g>
    <g>
      <path class="cls-1" d="m124.86,205.43c16.71-1.83,33-8.27,46.83-19.33,4.26-3.41,4.66-9.75.8-13.61l-42.05-42.05c-5.74-5.74-15.55-1.67-15.55,6.44v59.47c0,5.37,4.64,9.66,9.98,9.08Z"/>
      <path class="cls-3" d="m123.91,209.12c-3.08,0-6.08-1.14-8.4-3.23-2.71-2.43-4.26-5.91-4.26-9.55v-59.47c0-5.26,3.02-9.77,7.87-11.78,4.86-2.01,10.18-.95,13.9,2.76l42.05,42.05c2.56,2.56,3.91,6.1,3.71,9.71-.2,3.64-1.96,7.04-4.81,9.32-14,11.2-30.84,18.15-48.71,20.11h0c-.45.05-.9.07-1.35.07Zm.15-77.74c-.71,0-1.44.15-2.16.44-2.11.88-3.37,2.76-3.37,5.05v59.47c0,1.57.67,3.07,1.84,4.12,1.14,1.02,2.6,1.5,4.1,1.33h0c16.49-1.81,32.03-8.22,44.95-18.55,1.26-1.01,2-2.44,2.08-4.03.09-1.57-.48-3.04-1.59-4.15l-42.05-42.05c-1.07-1.07-2.41-1.63-3.8-1.63Z"/>
    </g>
    <g>
      <path class="cls-1" d="m57.92,185.96c13.11,10.52,29.19,17.49,46.78,19.44,5.42.6,10.19-3.6,10.19-9.06v-59.47c0-8.12-9.81-12.18-15.55-6.44l-42.05,42.05c-3.8,3.8-3.55,10.11.64,13.47Z"/>
      <path class="cls-3" d="m105.72,209.11c-.47,0-.95-.03-1.42-.08-17.81-1.98-34.64-8.97-48.66-20.22-2.77-2.22-4.47-5.55-4.67-9.12-.2-3.63,1.16-7.19,3.74-9.77l42.05-42.05c3.72-3.72,9.04-4.78,13.9-2.76,4.85,2.01,7.87,6.53,7.87,11.78v59.47c0,3.62-1.55,7.08-4.24,9.49-2.36,2.11-5.42,3.27-8.57,3.27Zm0-77.72c-1.39,0-2.73.56-3.8,1.63l-42.05,42.05c-1.11,1.11-1.7,2.65-1.61,4.22.08,1.53.78,2.89,1.95,3.84h0c12.94,10.38,28.47,16.84,44.9,18.67,1.59.17,3.13-.31,4.32-1.38,1.17-1.05,1.82-2.49,1.82-4.06v-59.47c0-2.29-1.26-4.17-3.37-5.05-.72-.3-1.44-.44-2.16-.44Z"/>
    </g>
    <g>
      <path class="cls-1" d="m24.34,124.86c1.83,16.71,8.27,33,19.33,46.83,3.41,4.26,9.75,4.66,13.61.8l42.05-42.05c5.74-5.74,1.67-15.55-6.44-15.55h-59.47c-5.37,0-9.66,4.64-9.08,9.98Z"/>
      <path class="cls-3" d="m50.85,178.8c-.23,0-.47,0-.7-.02-3.64-.2-7.04-1.96-9.32-4.81-11.2-14-18.15-30.84-20.11-48.71h0c-.39-3.53.76-7.09,3.15-9.75,2.43-2.71,5.91-4.26,9.55-4.26h59.47c5.26,0,9.77,3.02,11.78,7.87,2.01,4.85.95,10.18-2.77,13.9l-42.05,42.05c-2.39,2.39-5.64,3.73-9.01,3.73Zm-22.88-54.33c1.81,16.49,8.22,32.03,18.55,44.95,1,1.26,2.44,2,4.03,2.09,1.56.08,3.04-.48,4.15-1.59l42.05-42.05c1.62-1.62,2.06-3.84,1.18-5.96-.87-2.11-2.76-3.37-5.05-3.37h-59.47c-1.57,0-3.07.67-4.12,1.84-1.02,1.14-1.5,2.6-1.33,4.1h0Z"/>
    </g>
    <g>
      <path class="cls-1" d="m43.81,57.92c-10.52,13.11-17.49,29.19-19.44,46.78-.6,5.42,3.6,10.19,9.06,10.19h59.47c8.12,0,12.18-9.81,6.44-15.55l-42.05-42.05c-3.8-3.8-10.11-3.55-13.47.64Z"/>
      <path class="cls-3" d="m92.89,118.53h-59.47c-3.62,0-7.08-1.55-9.49-4.24-2.43-2.72-3.59-6.36-3.19-9.99,1.98-17.81,8.98-34.64,20.22-48.66h0c2.22-2.77,5.55-4.47,9.13-4.67,3.64-.22,7.19,1.16,9.77,3.73l42.05,42.05c3.72,3.72,4.78,9.04,2.77,13.9-2.01,4.85-6.53,7.87-11.78,7.87Zm-46.24-58.33c-10.38,12.94-16.84,28.46-18.66,44.9-.18,1.6.31,3.13,1.38,4.33,1.05,1.17,2.49,1.81,4.06,1.81h59.47c2.29,0,4.17-1.26,5.05-3.37.88-2.11.43-4.34-1.18-5.96l-42.05-42.05c-1.11-1.11-2.63-1.69-4.22-1.61-1.53.08-2.9.78-3.84,1.96h0Z"/>
    </g>
    <g>
      <path class="cls-1" d="m104.89,24.34c-16.71,1.83-33,8.27-46.83,19.33-4.26,3.41-4.66,9.75-.8,13.61l42.05,42.05c5.74,5.74,15.55,1.67,15.55-6.44v-59.47c0-5.37-4.64-9.66-9.98-9.08Z"/>
      <path class="cls-3" d="m105.68,105.68c-3.28,0-6.47-1.3-8.94-3.77l-42.05-42.05c-2.56-2.56-3.91-6.1-3.71-9.71.2-3.64,1.95-7.04,4.81-9.32,14-11.2,30.84-18.15,48.71-20.11h0c3.54-.39,7.09.76,9.76,3.15,2.71,2.43,4.26,5.91,4.26,9.55v59.47c0,5.26-3.02,9.77-7.87,11.78-1.63.67-3.31,1-4.96,1Zm-.39-77.71h0c-16.49,1.81-32.03,8.22-44.95,18.55-1.26,1.01-2,2.44-2.08,4.03-.09,1.57.48,3.05,1.59,4.16l42.05,42.05c1.62,1.62,3.85,2.06,5.96,1.18,2.11-.88,3.37-2.76,3.37-5.05v-59.47c0-1.57-.67-3.07-1.84-4.12-1.14-1.02-2.6-1.5-4.1-1.33Z"/>
    </g>
    <g>
      <path class="cls-4" d="m178.52,28.03c-13.11-10.52-29.19-17.49-46.78-19.44-5.42-.6-10.19,3.6-10.19,9.06v59.47c0,8.12,9.81,12.18,15.55,6.44l42.05-42.05c3.8-3.8,3.55-10.11-.64-13.47Z"/>
      <path class="cls-3" d="m130.74,89.9c-1.65,0-3.33-.33-4.96-1-4.86-2.01-7.87-6.53-7.87-11.78V17.64c0-3.62,1.55-7.08,4.24-9.49,2.72-2.43,6.36-3.59,9.99-3.19,17.81,1.98,34.64,8.98,48.66,20.22h0c2.77,2.22,4.47,5.55,4.67,9.12.2,3.63-1.16,7.19-3.74,9.77l-42.05,42.05c-2.47,2.47-5.65,3.77-8.94,3.77Zm-.05-77.73c-1.36,0-2.65.49-3.68,1.41-1.17,1.05-1.82,2.49-1.82,4.06v59.47c0,2.29,1.26,4.17,3.37,5.05,2.11.88,4.34.43,5.96-1.18l42.05-42.05c1.11-1.11,1.7-2.65,1.61-4.22-.08-1.53-.78-2.89-1.95-3.84h0c-12.94-10.38-28.46-16.84-44.9-18.67-.22-.02-.43-.04-.64-.04Z"/>
    </g>
  </g>
  <g>
    <path class="cls-1" d="m281.11,87.06l16.21,35.19,16.15-35.19h16.28l-32.56,66.98-32.3-66.98h16.21Z"/>
    <path class="cls-1" d="m337.34,61c0-2.53.92-4.72,2.77-6.56,1.84-1.84,4.05-2.77,6.63-2.77s4.85.92,6.69,2.77c1.84,1.8,2.77,4.01,2.77,6.63s-.92,4.85-2.77,6.69c-1.8,1.84-4.01,2.77-6.63,2.77s-4.85-.92-6.69-2.77c-1.84-1.84-2.77-4.1-2.77-6.76Zm16.66,26.06v62.67h-14.48v-62.67h14.48Z"/>
    <path class="cls-1" d="m408.76,97.74l-11.97,6.37c-1.89-3.86-4.22-5.79-7.01-5.79-1.33,0-2.47.44-3.41,1.32-.94.88-1.42,2.01-1.42,3.38,0,2.4,2.79,4.78,8.36,7.14,7.68,3.3,12.85,6.35,15.51,9.14,2.66,2.79,3.99,6.54,3.99,11.26,0,6.05-2.23,11.11-6.69,15.19-4.33,3.86-9.57,5.79-15.7,5.79-10.51,0-17.95-5.12-22.33-15.38l12.35-5.73c1.71,3,3.02,4.91,3.92,5.73,1.76,1.63,3.86,2.44,6.31,2.44,4.89,0,7.33-2.23,7.33-6.69,0-2.57-1.89-4.98-5.66-7.21-1.46-.73-2.92-1.44-4.37-2.12-1.46-.69-2.94-1.39-4.44-2.12-4.2-2.06-7.16-4.12-8.88-6.18-2.19-2.62-3.28-5.98-3.28-10.1,0-5.45,1.87-9.95,5.6-13.51,3.82-3.56,8.45-5.34,13.9-5.34,8.02,0,13.98,4.14,17.89,12.42Z"/>
    <path class="cls-1" d="m423.62,61c0-2.53.92-4.72,2.77-6.56,1.84-1.84,4.05-2.77,6.63-2.77s4.85.92,6.69,2.77c1.84,1.8,2.77,4.01,2.77,6.63s-.92,4.85-2.77,6.69c-1.8,1.84-4.01,2.77-6.63,2.77s-4.85-.92-6.69-2.77c-1.84-1.84-2.77-4.1-2.77-6.76Zm16.66,26.06v62.67h-14.48v-62.67h14.48Z"/>
    <path class="cls-1" d="m455.66,117.94c0-9.05,3.24-16.75,9.72-23.1,6.48-6.35,14.37-9.52,23.68-9.52s17.29,3.2,23.81,9.59c6.43,6.39,9.65,14.24,9.65,23.55s-3.24,17.27-9.72,23.61c-6.52,6.31-14.52,9.46-24,9.46s-17.27-3.22-23.61-9.65c-6.35-6.35-9.52-14.33-9.52-23.93Zm14.8.26c0,6.26,1.67,11.22,5.02,14.86,3.43,3.69,7.96,5.53,13.58,5.53s10.19-1.82,13.58-5.47c3.39-3.65,5.08-8.51,5.08-14.6s-1.69-10.96-5.08-14.61c-3.43-3.69-7.96-5.53-13.58-5.53s-10.02,1.85-13.45,5.53c-3.43,3.69-5.15,8.45-5.15,14.28Z"/>
    <path class="cls-1" d="m537.83,87.06h14.54v5.79c5.06-5.02,10.77-7.53,17.12-7.53,7.29,0,12.97,2.3,17.05,6.89,3.52,3.9,5.28,10.27,5.28,19.11v38.41h-14.54v-35c0-6.18-.86-10.44-2.57-12.8-1.67-2.4-4.72-3.6-9.14-3.6-4.8,0-8.21,1.59-10.23,4.76-1.97,3.13-2.96,8.6-2.96,16.41v30.24h-14.54v-62.67Z"/>
    <path class="cls-1" d="m656.28,87.06h14.54v62.67h-14.54v-6.56c-5.96,5.58-12.38,8.36-19.24,8.36-8.66,0-15.83-3.13-21.49-9.39-5.62-6.39-8.43-14.37-8.43-23.93s2.81-17.22,8.43-23.48c5.62-6.26,12.65-9.39,21.1-9.39,7.29,0,13.83,3,19.62,9.01v-7.27Zm-34.36,31.14c0,6.01,1.61,10.9,4.83,14.67,3.3,3.82,7.46,5.73,12.48,5.73,5.36,0,9.69-1.84,13-5.53,3.3-3.82,4.95-8.66,4.95-14.54s-1.65-10.72-4.95-14.54c-3.3-3.73-7.59-5.6-12.87-5.6-4.98,0-9.14,1.89-12.48,5.66-3.3,3.82-4.95,8.54-4.95,14.16Z"/>
    <path class="cls-1" d="m735.29,41.05h14.54v108.67h-14.54v-6.56c-5.71,5.58-12.16,8.36-19.37,8.36-8.58,0-15.7-3.13-21.36-9.39-5.62-6.39-8.43-14.37-8.43-23.93s2.81-17.16,8.43-23.42c5.58-6.31,12.59-9.46,21.04-9.46,7.33,0,13.9,3,19.69,9.01v-53.27Zm-34.36,77.14c0,6.01,1.61,10.9,4.83,14.67,3.3,3.82,7.46,5.73,12.48,5.73,5.36,0,9.69-1.84,13-5.53,3.3-3.82,4.95-8.66,4.95-14.54s-1.65-10.72-4.95-14.54c-3.3-3.73-7.59-5.6-12.87-5.6-4.98,0-9.14,1.89-12.48,5.66-3.3,3.82-4.95,8.54-4.95,14.16Z"/>
    <path class="cls-1" d="m825.17,121.8h-44.91c.39,5.15,2.06,9.24,5.02,12.29,2.96,3,6.76,4.5,11.39,4.5,3.6,0,6.58-.86,8.94-2.57,2.32-1.72,4.96-4.89,7.91-9.52l12.23,6.82c-1.89,3.22-3.88,5.97-5.98,8.27-2.1,2.29-4.35,4.18-6.76,5.66-2.4,1.48-5,2.56-7.79,3.25-2.79.69-5.81,1.03-9.07,1.03-9.35,0-16.86-3-22.52-9.01-5.66-6.05-8.49-14.07-8.49-24.06s2.74-17.93,8.24-24.06c5.53-6.05,12.87-9.07,22-9.07s16.51,2.94,21.88,8.82c5.32,5.83,7.98,13.92,7.98,24.26l-.06,3.41Zm-14.86-11.84c-2.02-7.72-6.89-11.58-14.61-11.58-1.76,0-3.41.27-4.95.81-1.54.54-2.95,1.31-4.21,2.32-1.27,1.01-2.35,2.22-3.25,3.64-.9,1.42-1.59,3.02-2.06,4.83h29.08Z"/>
  </g>
</svg>