<?xml version="1.0" encoding="UTF-8"?>
<svg id="Layer_1" data-name="Layer 1" xmlns="http://www.w3.org/2000/svg" viewBox="0 0 345.42 345.42">
  <defs>
    <style>
      .cls-1 {
        fill: #2f372e;
      }

      .cls-1, .cls-2, .cls-3, .cls-4 {
        stroke-width: 0px;
      }

      .cls-2 {
        fill: #b7a894;
      }

      .cls-3 {
        fill: #fff;
      }

      .cls-4 {
        fill: #ffe528;
      }
    </style>
  </defs>
  <circle class="cls-3" cx="172.71" cy="172.71" r="172.71"/>
  <path class="cls-2" d="m172.71,19.17c84.66,0,153.54,68.88,153.54,153.54s-68.88,153.54-153.54,153.54S19.17,257.37,19.17,172.71,88.05,19.17,172.71,19.17M172.71,0C77.32,0,0,77.32,0,172.71s77.32,172.71,172.71,172.71,172.71-77.32,172.71-172.71S268.09,0,172.71,0h0Z"/>
  <g>
    <path class="cls-4" d="m308.82,157.71c-2.75-25.12-12.44-49.62-29.06-70.4-5.12-6.41-14.65-7-20.45-1.2l-63.22,63.22c-8.63,8.63-2.52,23.38,9.68,23.38h89.4c8.08,0,14.52-6.97,13.64-15Z"/>
    <path class="cls-3" d="m295.17,178.19h-89.4c-7.9,0-14.69-4.54-17.71-11.83-3.02-7.3-1.43-15.31,4.16-20.9l63.22-63.22c3.85-3.85,9.17-5.87,14.6-5.58,5.47.3,10.58,2.94,14.01,7.23,16.83,21.05,27.28,46.37,30.23,73.22h0c.58,5.31-1.14,10.65-4.74,14.66-3.65,4.07-8.88,6.41-14.35,6.41Zm-26.22-90.6c-2.18,0-4.21.84-5.77,2.4l-63.22,63.22c-2.43,2.43-3.1,5.78-1.78,8.96,1.32,3.18,4.15,5.07,7.59,5.07h89.4c2.36,0,4.62-1.01,6.2-2.77,1.54-1.72,2.25-3.9,2-6.16h0c-2.72-24.79-12.36-48.15-27.89-67.57-1.51-1.89-3.66-3-6.06-3.13-.16,0-.32-.01-.47-.01Z"/>
  </g>
  <g>
    <path class="cls-1" d="m279.56,258.35c15.81-19.71,26.29-43.88,29.23-70.33.91-8.15-5.41-15.31-13.62-15.31h-89.41c-12.2,0-18.31,14.75-9.68,23.38l63.22,63.22c5.71,5.71,15.2,5.34,20.26-.96Z"/>
    <path class="cls-3" d="m269.06,268.82c-5.09,0-10.01-2.02-13.63-5.64l-63.22-63.22c-5.59-5.58-7.18-13.59-4.16-20.89,3.02-7.3,9.81-11.84,17.71-11.84h89.41c5.44,0,10.64,2.32,14.27,6.38,3.65,4.08,5.4,9.56,4.79,15.02-2.98,26.78-13.49,52.07-30.4,73.15h0c-3.34,4.17-8.35,6.73-13.72,7.02-.35.02-.7.03-1.05.03Zm-63.29-90.64c-3.44,0-6.28,1.9-7.59,5.07-1.32,3.18-.65,6.52,1.78,8.95l63.22,63.22c1.67,1.67,3.96,2.56,6.34,2.42,2.3-.13,4.36-1.17,5.78-2.94,15.61-19.45,25.31-42.79,28.06-67.5.27-2.4-.47-4.71-2.07-6.5-1.57-1.76-3.74-2.73-6.1-2.73h-89.41Z"/>
  </g>
  <g>
    <path class="cls-1" d="m187.71,308.82c25.12-2.75,49.62-12.44,70.4-29.06,6.41-5.12,7-14.65,1.2-20.45l-63.22-63.22c-8.63-8.63-23.38-2.52-23.38,9.68v89.4c0,8.08,6.97,14.52,15,13.64Z"/>
    <path class="cls-3" d="m186.27,314.37c-4.62,0-9.14-1.71-12.63-4.85-4.07-3.65-6.41-8.88-6.41-14.35v-89.41c0-7.9,4.53-14.69,11.83-17.71,7.3-3.02,15.31-1.43,20.9,4.15l63.22,63.22c3.85,3.85,5.88,9.17,5.58,14.6-.3,5.47-2.94,10.58-7.23,14.01-21.04,16.83-46.36,27.28-73.22,30.23h0c-.68.07-1.36.11-2.03.11Zm.22-116.86c-1.07,0-2.17.22-3.24.67-3.18,1.32-5.07,4.15-5.07,7.59v89.41c0,2.36,1.01,4.62,2.77,6.2,1.72,1.54,3.91,2.25,6.16,2h0c24.79-2.71,48.15-12.36,67.57-27.89,1.89-1.51,3-3.66,3.13-6.06.13-2.36-.72-4.58-2.38-6.24l-63.22-63.22c-1.61-1.61-3.62-2.44-5.72-2.44Z"/>
  </g>
  <g>
    <path class="cls-1" d="m87.07,279.56c19.71,15.81,43.88,26.29,70.33,29.23,8.15.91,15.31-5.41,15.31-13.62v-89.41c0-12.2-14.75-18.31-23.38-9.68l-63.22,63.22c-5.71,5.71-5.34,15.2.96,20.26Z"/>
    <path class="cls-3" d="m158.93,314.35c-.71,0-1.42-.04-2.14-.12-26.78-2.98-52.07-13.49-73.15-30.4-4.17-3.34-6.72-8.34-7.02-13.71-.3-5.46,1.75-10.82,5.61-14.68l63.22-63.22c5.59-5.59,13.59-7.19,20.9-4.15,7.3,3.02,11.83,9.81,11.83,17.71v89.41c0,5.44-2.32,10.64-6.38,14.27-3.55,3.18-8.15,4.91-12.88,4.91Zm0-116.84c-2.1,0-4.11.84-5.72,2.44l-63.22,63.22c-1.67,1.67-2.55,3.98-2.42,6.34.13,2.3,1.17,4.35,2.94,5.77h0c19.45,15.61,42.79,25.31,67.5,28.06,2.4.26,4.71-.47,6.5-2.07,1.76-1.58,2.73-3.74,2.73-6.1v-89.41c0-3.44-1.9-6.27-5.07-7.59-1.08-.45-2.17-.67-3.24-.67Z"/>
  </g>
  <g>
    <path class="cls-1" d="m36.6,187.71c2.75,25.12,12.44,49.62,29.06,70.4,5.12,6.41,14.65,7,20.45,1.2l63.22-63.22c8.63-8.63,2.52-23.38-9.68-23.38H50.24c-8.08,0-14.52,6.97-13.64,15Z"/>
    <path class="cls-3" d="m76.44,268.78c-.35,0-.71,0-1.06-.03-5.47-.3-10.58-2.94-14.01-7.23-16.83-21.04-27.28-46.36-30.23-73.22h0c-.58-5.31,1.14-10.65,4.74-14.66,3.65-4.07,8.88-6.41,14.35-6.41h89.4c7.9,0,14.69,4.54,17.71,11.84,3.02,7.3,1.43,15.31-4.16,20.89l-63.22,63.22c-3.6,3.6-8.48,5.61-13.54,5.61Zm-34.4-81.67c2.72,24.79,12.36,48.15,27.89,67.57,1.51,1.89,3.66,3,6.06,3.13,2.35.12,4.57-.72,6.25-2.39l63.22-63.22c2.43-2.43,3.1-5.78,1.78-8.95-1.31-3.18-4.15-5.07-7.59-5.07H50.24c-2.36,0-4.62,1.01-6.2,2.77-1.54,1.72-2.25,3.9-2,6.16h0Z"/>
  </g>
  <g>
    <path class="cls-1" d="m65.86,87.07c-15.81,19.71-26.29,43.88-29.23,70.33-.91,8.15,5.41,15.31,13.62,15.31h89.41c12.2,0,18.31-14.75,9.68-23.38l-63.22-63.22c-5.71-5.71-15.2-5.34-20.26.96Z"/>
    <path class="cls-3" d="m139.65,178.19H50.24c-5.44,0-10.64-2.32-14.27-6.38-3.65-4.08-5.4-9.56-4.79-15.02,2.98-26.78,13.49-52.07,30.4-73.15h0c3.34-4.17,8.35-6.73,13.72-7.02,5.47-.33,10.81,1.75,14.68,5.61l63.22,63.22c5.59,5.59,7.18,13.59,4.16,20.9-3.02,7.3-9.81,11.83-17.71,11.83Zm-69.52-87.69c-15.61,19.45-25.31,42.79-28.06,67.5-.27,2.4.47,4.71,2.07,6.5,1.58,1.76,3.74,2.73,6.1,2.73h89.41c3.44,0,6.28-1.9,7.59-5.07,1.32-3.18.65-6.53-1.78-8.96l-63.22-63.22c-1.67-1.67-3.96-2.54-6.34-2.42-2.3.13-4.36,1.17-5.78,2.94h0Z"/>
  </g>
  <g>
    <path class="cls-1" d="m157.69,36.6c-25.12,2.75-49.62,12.44-70.4,29.06-6.41,5.12-7,14.65-1.2,20.45l63.22,63.22c8.63,8.63,23.38,2.52,23.38-9.68V50.24c0-8.08-6.97-14.52-15-13.64Z"/>
    <path class="cls-3" d="m158.87,158.87c-4.94,0-9.72-1.95-13.43-5.66l-63.22-63.22c-3.85-3.85-5.88-9.17-5.58-14.6.3-5.47,2.94-10.58,7.23-14.01,21.05-16.83,46.37-27.28,73.22-30.23h0c5.32-.59,10.66,1.15,14.67,4.74,4.07,3.65,6.41,8.88,6.41,14.35v89.4c0,7.9-4.54,14.69-11.84,17.71-2.45,1.01-4.97,1.51-7.46,1.51Zm-.59-116.82h0c-24.79,2.71-48.15,12.36-67.57,27.89-1.89,1.51-3,3.66-3.13,6.06-.13,2.36.72,4.58,2.39,6.25l63.22,63.22c2.43,2.43,5.78,3.09,8.96,1.78,3.18-1.32,5.07-4.15,5.07-7.59V50.24c0-2.36-1.01-4.62-2.77-6.19-1.72-1.54-3.91-2.26-6.16-2.01Z"/>
  </g>
  <g>
    <path class="cls-4" d="m268.37,42.14c-19.71-15.81-43.88-26.29-70.33-29.23-8.15-.91-15.31,5.41-15.31,13.62v89.41c0,12.2,14.75,18.31,23.38,9.68l63.22-63.22c5.71-5.71,5.34-15.2-.96-20.26Z"/>
    <path class="cls-3" d="m196.55,135.15c-2.49,0-5.01-.49-7.46-1.51-7.3-3.02-11.83-9.81-11.83-17.71V26.52c0-5.44,2.33-10.64,6.38-14.27,4.08-3.65,9.56-5.4,15.02-4.79,26.78,2.98,52.07,13.49,73.15,30.4h0c4.17,3.34,6.73,8.34,7.02,13.72.3,5.46-1.75,10.82-5.62,14.68l-63.22,63.22c-3.71,3.71-8.5,5.66-13.44,5.66Zm-.07-116.85c-2.05,0-3.98.74-5.53,2.12-1.76,1.58-2.73,3.74-2.73,6.1v89.41c0,3.44,1.9,6.27,5.07,7.59,3.18,1.32,6.52.65,8.96-1.78l63.22-63.22c1.67-1.67,2.55-3.98,2.42-6.34-.13-2.3-1.17-4.35-2.94-5.77h0c-19.45-15.61-42.79-25.31-67.5-28.06-.32-.03-.65-.05-.97-.05Z"/>
  </g>
</svg>